<svg width="50" height="58" viewBox="0 0 50 58" fill="none" xmlns="http://www.w3.org/2000/svg">
<path d="M19.8286 23.9714C18.2 23.9714 16.9143 25.4 16.9143 27.1429C16.9143 28.8857 18.2286 30.3143 19.8286 30.3143C21.4571 30.3143 22.7429 28.8857 22.7429 27.1429C22.7714 25.4 21.4571 23.9714 19.8286 23.9714ZM30.2571 23.9714C28.6286 23.9714 27.3429 25.4 27.3429 27.1429C27.3429 28.8857 28.6571 30.3143 30.2571 30.3143C31.8857 30.3143 33.1714 28.8857 33.1714 27.1429C33.1714 25.4 31.8857 23.9714 30.2571 23.9714Z" fill="#4B4B4B"/>
<path d="M44.1429 0H5.85714C2.62857 0 0 2.62857 0 5.88571V44.5143C0 47.7714 2.62857 50.4 5.85714 50.4H38.2571L36.7429 45.1143L40.4 48.5143L43.8571 51.7143L50 57.1429V5.88571C50 2.62857 47.3714 0 44.1429 0ZM33.1143 37.3143C33.1143 37.3143 32.0857 36.0857 31.2286 35C34.9714 33.9429 36.4 31.6 36.4 31.6C35.2286 32.3714 34.1143 32.9143 33.1143 33.2857C31.6857 33.8857 30.3143 34.2857 28.9714 34.5143C26.2286 35.0286 23.7143 34.8857 21.5714 34.4857C19.9429 34.1714 18.5429 33.7143 17.3714 33.2571C16.7143 33 16 32.6857 15.2857 32.2857C15.2 32.2286 15.1143 32.2 15.0286 32.1429C14.9714 32.1143 14.9429 32.0857 14.9143 32.0571C14.4 31.7714 14.1143 31.5714 14.1143 31.5714C14.1143 31.5714 15.4857 33.8571 19.1143 34.9429C18.2571 36.0286 17.2 37.3143 17.2 37.3143C10.8857 37.1143 8.48571 32.9714 8.48571 32.9714C8.48571 23.7714 12.6 16.3143 12.6 16.3143C16.7143 13.2286 20.6286 13.3143 20.6286 13.3143L20.9143 13.6571C15.7714 15.1429 13.4 17.4 13.4 17.4C13.4 17.4 14.0286 17.0571 15.0857 16.5714C18.1429 15.2286 20.5714 14.8571 21.5714 14.7714C21.7429 14.7429 21.8857 14.7143 22.0571 14.7143C23.8 14.4857 25.7714 14.4286 27.8286 14.6571C30.5429 14.9714 33.4571 15.7714 36.4286 17.4C36.4286 17.4 34.1714 15.2571 29.3143 13.7714L29.7143 13.3143C29.7143 13.3143 33.6286 13.2286 37.7429 16.3143C37.7429 16.3143 41.8571 23.7714 41.8571 32.9714C41.8571 32.9714 39.4286 37.1143 33.1143 37.3143Z" fill="#4B4B4B"/>
</svg>
