<svg width="50" height="49" viewBox="0 0 50 49" fill="none" xmlns="http://www.w3.org/2000/svg">
<path fill-rule="evenodd" clip-rule="evenodd" d="M25 0C11.1875 0 0 11.1875 0 25C0 36.0625 7.15625 45.4063 17.0937 48.7188C18.3437 48.9375 18.8125 48.1875 18.8125 47.5313C18.8125 46.9375 18.7813 44.9688 18.7813 42.875C12.5 44.0313 10.875 41.3437 10.375 39.9375C10.0937 39.2187 8.875 37 7.8125 36.4062C6.9375 35.9375 5.6875 34.7812 7.78125 34.75C9.75 34.7187 11.1563 36.5625 11.625 37.3125C13.875 41.0937 17.4688 40.0313 18.9063 39.375C19.125 37.75 19.7812 36.6562 20.5 36.0312C14.9375 35.4062 9.125 33.25 9.125 23.6875C9.125 20.9687 10.0938 18.7187 11.6875 16.9687C11.4375 16.3437 10.5625 13.7812 11.9375 10.3437C11.9375 10.3437 14.0313 9.6875 18.8125 12.9063C20.8125 12.3438 22.9375 12.0625 25.0625 12.0625C27.1875 12.0625 29.3125 12.3438 31.3125 12.9063C36.0938 9.65625 38.1875 10.3437 38.1875 10.3437C39.5625 13.7812 38.6875 16.3437 38.4375 16.9687C40.0313 18.7187 41 20.9375 41 23.6875C41 33.2812 35.1563 35.4062 29.5938 36.0312C30.5 36.8125 31.2813 38.3125 31.2813 40.6563C31.2813 44 31.25 46.6875 31.25 47.5313C31.25 48.1875 31.7188 48.9688 32.9688 48.7188C37.9317 47.0433 42.2443 43.8537 45.2995 39.5988C48.3547 35.344 49.9987 30.2381 50 25C50 11.1875 38.8125 0 25 0Z" fill="#4B4B4B"/>
</svg>
