<svg width="50" height="41" viewBox="0 0 50 41" fill="none" xmlns="http://www.w3.org/2000/svg">
<path d="M45.1492 10.1606C41.9776 44.7145 11.9403 44.5288 0 36.3547C7.91047 36.8003 13.2462 33.5682 14.9254 31.8965C8.20898 31.3958 6.83444 27.2913 5.83941 25C6.39912 25.2423 9.30656 25.5474 10.4015 24.8175C3.60742 23.3414 2.50073 17.8153 2.18978 14.781C4.19708 15.5109 5.59702 15.7961 6.52985 15.7341C0.111941 11.127 1.99005 4.89734 3.73134 2.35844C10.1492 10.5325 20.3359 12.6996 24.6269 12.7614C23.1343 -3.40063 39.1793 -1.35675 42.1641 3.47345C42.1641 3.47345 44.5895 3.47341 48.5075 1.05759C48.1343 3.6585 45.709 5.51616 44.2164 6.63081C45.8953 6.63081 47.9473 5.8879 49.9992 5.14497L50 5.14469C48.0597 8.11711 45.9577 9.72711 45.1492 10.1606Z" fill="#4B4B4B"/>
</svg>
